<svg width="20px" height="20px" viewBox="0 0 1.2 1.2" xmlns="http://www.w3.org/2000/svg"><title>ai</title><g id="Layer_2" data-name="Layer 2"><g id="invisible_box" data-name="invisible box"><path width="48" height="48" fill="none" d="M0 0H1.2V1.2H0V0z"/></g><g id="Q3_icons" data-name="Q3 icons"><g><path d="M1.14 0.468 1.025 0.373V0.188a0.025 0.025 0 0 0 -0.015 -0.023l-0.248 -0.113h-0.01l-0.015 0.005L0.6 0.148l-0.138 -0.093 -0.015 -0.005h-0.01L0.19 0.165a0.025 0.025 0 0 0 -0.015 0.023v0.185l-0.115 0.095a0.02 0.02 0 0 0 -0.01 0.02v0.225a0.02 0.02 0 0 0 0.01 0.02L0.175 0.828v0.185a0.025 0.025 0 0 0 0.015 0.023l0.248 0.113h0.01l0.015 -0.005 0.138 -0.09 0.138 0.093 0.015 0.005h0.01l0.248 -0.113a0.025 0.025 0 0 0 0.015 -0.023v-0.188l0.115 -0.095a0.02 0.02 0 0 0 0.01 -0.017v-0.23a0.02 0.02 0 0 0 -0.01 -0.017m-0.128 0.17H1.05v0.04l-0.088 0.07 -0.01 0.007 -0.01 -0.005a0.035 0.035 0 0 0 -0.05 0.017 0.038 0.038 0 0 0 0.015 0.05l0.017 0.007v0.135l-0.165 0.078 -0.105 -0.07 -0.017 -0.013V0.638H0.675a0.038 0.038 0 0 0 0 -0.075h-0.038V0.242l0.017 -0.013 0.105 -0.07L0.925 0.238v0.135l-0.017 0.007a0.038 0.038 0 0 0 -0.015 0.05 0.035 0.035 0 0 0 0.033 0.023l0.017 -0.005 0.01 -0.005 0.01 0.007 0.088 0.072v0.04h-0.038a0.038 0.038 0 0 0 0 0.075m-0.488 0h0.038v0.32l-0.017 0.013 -0.105 0.07 -0.165 -0.078v-0.135l0.017 -0.007a0.038 0.038 0 0 0 0.015 -0.05 0.035 0.035 0 0 0 -0.05 -0.017l-0.01 0.005 -0.01 -0.007L0.15 0.678v-0.04h0.038a0.038 0.038 0 0 0 0 -0.075H0.15v-0.04l0.088 -0.07 0.01 -0.007 0.01 0.005 0.017 0.005a0.035 0.035 0 0 0 0.033 -0.023 0.038 0.038 0 0 0 -0.015 -0.05L0.275 0.375V0.238l0.165 -0.078 0.105 0.07 0.017 0.013v0.32H0.525a0.038 0.038 0 0 0 0 0.075"/><path d="M0.348 0.248a0.045 0.045 0 0 0 0 0.055l0.065 0.063v0.07l-0.1 0.1v0.13l0.1 0.1v0.07l-0.065 0.063a0.045 0.045 0 0 0 0 0.055 0.038 0.038 0 0 0 0.028 0.01 0.038 0.038 0 0 0 0.028 -0.01l0.085 -0.088v-0.13l-0.1 -0.1v-0.07l0.1 -0.1v-0.13l-0.085 -0.088a0.045 0.045 0 0 0 -0.055 0"/><path d="m0.788 0.365 0.065 -0.063a0.045 0.045 0 0 0 0 -0.055 0.045 0.045 0 0 0 -0.055 0l-0.085 0.088v0.13l0.1 0.1v0.07l-0.1 0.1v0.13l0.085 0.088a0.043 0.043 0 0 0 0.055 0 0.045 0.045 0 0 0 0 -0.055l-0.065 -0.063v-0.07l0.1 -0.1v-0.13l-0.1 -0.1Z"/></g></g></g></svg>