<svg width="20px" height="20px" viewBox="0 0 0.6 0.6" xmlns="http://www.w3.org/2000/svg" fill="none"><path cx="12" cy="9" r="7" stroke="#000000" stroke-linecap="round" stroke-linejoin="round" stroke-width="0.05" d="M0.475 0.225A0.175 0.175 0 0 1 0.3 0.4A0.175 0.175 0 0 1 0.125 0.225A0.175 0.175 0 0 1 0.475 0.225z"/><path fill="#000000" stroke="#000000" stroke-linecap="round" stroke-linejoin="round" stroke-width="0.05" d="M0.175 0.506V0.35c0.017 0.017 0.065 0.05 0.125 0.05s0.108 -0.033 0.125 -0.05v0.156a0.025 0.025 0 0 1 -0.038 0.021l-0.074 -0.045a0.025 0.025 0 0 0 -0.026 0L0.213 0.527A0.025 0.025 0 0 1 0.175 0.506"/></svg>