<svg version="1.1" id="Capa_1" xmlns="http://www.w3.org/2000/svg" xmlns:xlink="http://www.w3.org/1999/xlink" x="0px" y="0px" width="20px" height="20px" viewBox="0 0 20 20" style="enable-background:new 0 0 43.916 43.916;" xml:space="preserve"><g><path d="M15.664 0H4.336a2.277 2.277 0 0 0 -2.277 2.277v15.446a2.277 2.277 0 0 0 2.277 2.277h11.327a2.277 2.277 0 0 0 2.277 -2.277V2.277a2.277 2.277 0 0 0 -2.276 -2.277M4.193 7.676c0 -0.534 0.433 -0.966 0.966 -0.966h0.338a2.232 2.232 0 0 1 -0.582 -1.505 2.246 2.246 0 0 1 4.492 0 2.232 2.232 0 0 1 -0.582 1.504h0.323a0.965 0.965 0 0 1 0.966 0.966v1.629c0 0.511 -0.398 0.924 -0.899 0.959h-4.122a0.963 0.963 0 0 1 -0.899 -0.959zm10.702 9.364h-9.791a0.911 0.911 0 0 1 0 -1.822h9.791a0.911 0.911 0 0 1 0 1.822m0 -3.416h-9.791a0.911 0.911 0 0 1 0 -1.822h9.791a0.911 0.911 0 0 1 0 1.822m0 -3.416h-2.96a0.911 0.911 0 0 1 0 -1.822h2.96a0.911 0.911 0 0 1 0 1.822"/></g></svg>