<svg version="1.1" id="Uploaded to svgrepo.com" xmlns="http://www.w3.org/2000/svg" xmlns:xlink="http://www.w3.org/1999/xlink" width="20px" height="20px" viewBox="0 0 0.8 0.8" xml:space="preserve"><style type="text/css">.blueprint_een{fill:#111918;}</style><path class="blueprint_een" d="M0.163 0.425h0.239c0.006 0.042 0.042 0.075 0.086 0.075s0.08 -0.033 0.086 -0.075h0.064a0.063 0.063 0 0 0 0.061 -0.051C0.742 0.368 0.775 0.332 0.775 0.288s-0.033 -0.081 -0.076 -0.086A0.063 0.063 0 0 0 0.638 0.15h-0.164c-0.006 -0.042 -0.042 -0.075 -0.086 -0.075s-0.08 0.033 -0.086 0.075h-0.053A0.087 0.087 0 0 0 0.163 0.075a0.088 0.088 0 1 0 0 0.175 0.087 0.087 0 0 0 0.086 -0.075h0.053c0.006 0.042 0.042 0.075 0.086 0.075s0.08 -0.033 0.086 -0.075h0.164c0.017 0 0.031 0.011 0.036 0.026C0.632 0.208 0.6 0.244 0.6 0.288s0.032 0.079 0.073 0.086A0.038 0.038 0 0 1 0.638 0.4h-0.064c-0.006 -0.042 -0.042 -0.075 -0.086 -0.075s-0.08 0.033 -0.086 0.075H0.163a0.063 0.063 0 0 0 -0.061 0.051C0.058 0.457 0.025 0.493 0.025 0.537s0.033 0.081 0.076 0.086A0.063 0.063 0 0 0 0.163 0.675h0.064c0.006 0.042 0.042 0.075 0.086 0.075s0.08 -0.033 0.086 -0.075h0.153a0.087 0.087 0 0 0 0.086 0.075 0.088 0.088 0 1 0 0 -0.175 0.087 0.087 0 0 0 -0.086 0.075h-0.152c-0.006 -0.042 -0.042 -0.075 -0.086 -0.075s-0.08 0.033 -0.086 0.075H0.163a0.038 0.038 0 0 1 -0.036 -0.026C0.168 0.617 0.2 0.581 0.2 0.537s-0.032 -0.079 -0.073 -0.086A0.038 0.038 0 0 1 0.163 0.425m0 -0.225C0.142 0.2 0.125 0.183 0.125 0.163S0.142 0.125 0.163 0.125 0.2 0.142 0.2 0.163 0.183 0.2 0.163 0.2m0.225 0c-0.021 0 -0.038 -0.017 -0.038 -0.038S0.367 0.125 0.388 0.125s0.038 0.017 0.038 0.038S0.408 0.2 0.388 0.2M0.65 0.288c0 -0.021 0.017 -0.038 0.038 -0.038s0.038 0.017 0.038 0.038 -0.017 0.038 -0.038 0.038 -0.038 -0.017 -0.038 -0.038M0.488 0.375c0.021 0 0.038 0.017 0.038 0.038s-0.017 0.038 -0.038 0.038 -0.038 -0.017 -0.038 -0.038 0.017 -0.038 0.038 -0.038m0.15 0.25c0.021 0 0.038 0.017 0.038 0.038s-0.017 0.038 -0.038 0.038 -0.038 -0.017 -0.038 -0.038 0.017 -0.038 0.038 -0.038m-0.325 0c0.021 0 0.038 0.017 0.038 0.038s-0.017 0.038 -0.038 0.038 -0.038 -0.017 -0.038 -0.038 0.017 -0.038 0.038 -0.038M0.15 0.537c0 0.021 -0.017 0.038 -0.038 0.038S0.075 0.558 0.075 0.537 0.092 0.5 0.113 0.5s0.038 0.017 0.038 0.038"/></svg>