<svg fill="#000000" height="20px" width="20px" version="1.1" id="Icons" xmlns="http://www.w3.org/2000/svg" xmlns:xlink="http://www.w3.org/1999/xlink" viewBox="0 0 0.8 0.8" xml:space="preserve"><path d="M0.575 0H0.225C0.1 0 0 0.1 0 0.225v0.35c0 0.125 0.1 0.225 0.225 0.225h0.35c0.125 0 0.225 -0.1 0.225 -0.225V0.225c0 -0.125 -0.1 -0.225 -0.225 -0.225M0.3 0.625c0 0.015 -0.01 0.025 -0.025 0.025H0.175c-0.015 0 -0.025 -0.01 -0.025 -0.025V0.325c0 -0.015 0.01 -0.025 0.025 -0.025h0.1c0.015 0 0.025 0.01 0.025 0.025zM0.225 0.275c-0.043 0 -0.075 -0.033 -0.075 -0.075s0.033 -0.075 0.075 -0.075 0.075 0.033 0.075 0.075 -0.033 0.075 -0.075 0.075m0.425 0.35c0 0.015 -0.01 0.025 -0.025 0.025h-0.075c-0.015 0 -0.025 -0.01 -0.025 -0.025v-0.163c0 -0.02 -0.017 -0.038 -0.038 -0.038s-0.038 0.017 -0.038 0.038V0.625c0 0.015 -0.01 0.025 -0.025 0.025h-0.075c-0.015 0 -0.025 -0.01 -0.025 -0.025V0.325c0 -0.015 0.01 -0.025 0.025 -0.025h0.1c0.007 0 0.013 0.003 0.017 0.007q0.023 -0.007 0.045 -0.007c0.075 0 0.138 0.063 0.138 0.138z"/></svg>