<svg fill="#000000" width="20px" height="20px" viewBox="0 0 0.6 0.6" id="phone" data-name="Flat Color" xmlns="http://www.w3.org/2000/svg" class="icon flat-color"><path id="primary" d="M0.505 0.325a0.25 0.25 0 0 1 -0.086 -0.023 0.05 0.05 0 0 0 -0.064 0.021l-0.013 0.021a0.318 0.318 0 0 1 -0.086 -0.086l0.022 -0.012a0.05 0.05 0 0 0 0.021 -0.064A0.25 0.25 0 0 1 0.275 0.095 0.05 0.05 0 0 0 0.225 0.05H0.128a0.075 0.075 0 0 0 -0.057 0.025 0.078 0.078 0 0 0 -0.018 0.061 0.475 0.475 0 0 0 0.411 0.411 0.075 0.075 0 0 0 0.011 0 0.075 0.075 0 0 0 0.05 -0.018 0.075 0.075 0 0 0 0.025 -0.056V0.375a0.05 0.05 0 0 0 -0.045 -0.05" style="fill: rgb(0, 0, 0);"/></svg>