<svg version="1.1" id="Capa_1" xmlns="http://www.w3.org/2000/svg" xmlns:xlink="http://www.w3.org/1999/xlink" x="0px" y="0px" viewBox="0 0 20 20" style="enable-background:new 0 0 221.023 221.023;" xml:space="preserve" width="20" height="20"><g><path d="M10 0C5.328 0 1.527 3.801 1.527 8.473c0 2.661 2.352 5.827 3.754 7.477 0.893 1.051 3.676 4.05 4.718 4.05 1.261 0 4.696 -4.01 4.73 -4.051 1.398 -1.649 3.743 -4.812 3.743 -7.477C18.473 3.801 14.672 0 10 0m5.357 8.41c0 2.936 -2.389 5.325 -5.325 5.325 -2.936 0 -5.325 -2.389 -5.325 -5.325s2.389 -5.325 5.325 -5.325c2.936 0 5.325 2.389 5.325 5.325"/><path d="M11.959 4.772c-0.226 0 -0.432 0.087 -0.597 0.251L10.442 5.943c-0.323 0.325 -0.379 0.922 0.225 1.526l0.252 0.252c-0.157 0.186 -0.426 0.454 -0.591 0.618l-0.107 0.107c-0.061 0.061 -0.125 0.126 -0.19 0.192 -0.14 0.142 -0.366 0.373 -0.528 0.513l-0.259 -0.259c-0.366 -0.366 -0.642 -0.522 -0.923 -0.522 -0.306 0 -0.492 0.187 -0.604 0.298l-0.867 0.867a0.83 0.83 0 0 0 -0.245 0.591c0 0.31 0.157 0.625 0.469 0.936 0.246 0.246 0.574 0.479 0.804 0.568 0.168 0.064 0.33 0.104 0.488 0.121 0.085 0.01 0.17 0.015 0.252 0.015 0.969 0 1.646 -0.688 2.582 -1.641a71.124 71.124 0 0 1 0.426 -0.431c2.651 -2.651 1.638 -4.076 1.264 -4.45 -0.315 -0.314 -0.628 -0.474 -0.93 -0.474"/></g></svg>