<svg width="20px" height="20px" viewBox="0 0 0.4 0.4" version="1.1" xmlns="http://www.w3.org/2000/svg" xmlns:xlink="http://www.w3.org/1999/xlink"><path width="16" height="16" id="icon-bound" fill="none" d="M0 0H0.4V0.4H0V0z"/><path d="M0.15 0.05h0.1v0.025h0.05V0.05c0 -0.028 -0.023 -0.05 -0.05 -0.05H0.15C0.123 0 0.1 0.023 0.1 0.05v0.025h0.05zM0 0.35c0 0.014 0.011 0.025 0.025 0.025h0.35c0.014 0 0.025 -0.011 0.025 -0.025V0.2H0zm0.175 -0.125h0.05v0.025a0.025 0.025 0 1 1 -0.05 0zm0.2 -0.125H0.025c-0.014 0 -0.025 0.011 -0.025 0.025v0.05h0.4V0.125c0 -0.014 -0.011 -0.025 -0.025 -0.025"/></svg>